<svg width="256" height="40" viewBox="0 0 256 40" fill="none" xmlns="http://www.w3.org/2000/svg">
<g clip-path="url(#clip0_1_226)">
<path d="M82.8602 17.0252H86.6237L81.5054 1.97144H77.1183L72 17.0252H75.7634L76.5161 14.6596H82.1075L82.8602 17.0252ZM77.5484 11.4338L79.3118 5.90692L81.0753 11.4338H77.5484Z" fill="white"/>
<path d="M93.6062 1.97144H87.9073V17.0252H91.3481V12.294H93.6062C96.5739 12.294 98.875 9.99294 98.875 7.13273C98.875 4.27251 96.5739 1.97144 93.6062 1.97144ZM93.6062 9.06821H91.3481V5.19724H93.6062C94.6599 5.19724 95.4341 6.03595 95.4341 7.13273C95.4341 8.2295 94.6599 9.06821 93.6062 9.06821Z" fill="white"/>
<path d="M106.291 1.97144H100.592V17.0252H104.033V12.294H106.291C109.259 12.294 111.56 9.99294 111.56 7.13273C111.56 4.27251 109.259 1.97144 106.291 1.97144ZM106.291 9.06821H104.033V5.19724H106.291C107.345 5.19724 108.119 6.03595 108.119 7.13273C108.119 8.2295 107.345 9.06821 106.291 9.06821Z" fill="white"/>
<path d="M121.191 17.0252H124.89L121.685 11.4983C123.341 10.6596 124.46 8.98219 124.46 7.13273C124.46 4.27251 122.159 1.97144 119.298 1.97144H113.277V17.0252H116.718V12.079H118.352L121.191 17.0252ZM116.718 5.19724H119.298C120.245 5.19724 121.019 6.03595 121.019 7.13273C121.019 8.2295 120.245 9.06821 119.298 9.06821H116.718V5.19724Z" fill="white"/>
<path d="M147.069 17.0252H151.456L156.359 1.97144H152.596L149.262 13.0467L145.929 1.97144H142.165L147.069 17.0252Z" fill="white"/>
<path d="M161.094 13.7134V11.0467H166.47V7.77789H161.094V5.28326H167.008V1.97144H157.653V17.0252H167.115V13.7134H161.094Z" fill="white"/>
<path d="M175.078 1.97144H169.056V17.0252H175.078C179.228 17.0252 182.39 13.7564 182.39 9.49832C182.39 5.24025 179.228 1.97144 175.078 1.97144ZM175.078 13.7134H172.497V5.28326H175.078C177.444 5.28326 179.078 6.91767 179.078 9.49832C179.078 12.079 177.444 13.7134 175.078 13.7134Z" fill="white"/>
<path d="M72.8611 34.4551L74.1526 33.7096C74.4257 34.6406 74.9262 35.3687 75.6542 35.8937C76.3823 36.4117 77.3203 36.6707 78.4684 36.6707C79.5885 36.6707 80.46 36.4257 81.0831 35.9357C81.7061 35.4457 82.0176 34.7876 82.0176 33.9616C82.0176 33.7166 81.9861 33.489 81.9231 33.279C81.8601 33.069 81.7796 32.887 81.6816 32.733C81.5836 32.572 81.4401 32.418 81.2511 32.271C81.0621 32.117 80.8801 31.9874 80.7051 31.8824C80.537 31.7774 80.306 31.6654 80.012 31.5464C79.718 31.4204 79.4555 31.3189 79.2245 31.2419C79.0004 31.1579 78.6994 31.0529 78.3214 30.9269C77.0683 30.5068 76.2388 30.2023 75.8327 30.0133C74.7687 29.5093 74.0756 28.8652 73.7536 28.0812C73.5856 27.6752 73.5016 27.2131 73.5016 26.6951C73.5016 26.0511 73.6241 25.4665 73.8691 24.9415C74.1211 24.4095 74.4572 23.9754 74.8772 23.6394C75.3042 23.2964 75.7942 23.0339 76.3473 22.8519C76.9073 22.6629 77.5024 22.5683 78.1324 22.5683C79.3085 22.5683 80.327 22.8729 81.1881 23.4819C82.0491 24.0839 82.6862 24.861 83.0992 25.813L81.8286 26.5271C81.5206 25.785 81.0586 25.183 80.4425 24.721C79.8265 24.259 79.0565 24.0279 78.1324 24.0279C77.2083 24.0279 76.4558 24.259 75.8747 24.721C75.3007 25.183 75.0137 25.82 75.0137 26.6321C75.0137 26.9541 75.0662 27.2411 75.1712 27.4932C75.2832 27.7452 75.4197 27.9587 75.5807 28.1337C75.7487 28.3087 75.9868 28.4802 76.2948 28.6482C76.6098 28.8092 76.9108 28.9457 77.1978 29.0578C77.4848 29.1628 77.8664 29.2923 78.3424 29.4463C79.7565 29.9153 80.7366 30.2898 81.2826 30.5699C82.3957 31.1509 83.0922 31.8894 83.3722 32.7855C83.4772 33.1285 83.5297 33.5065 83.5297 33.9196C83.5297 35.2006 83.0607 36.2262 82.1226 36.9963C81.1916 37.7593 79.9665 38.1408 78.4474 38.1408C77.0753 38.1408 75.8992 37.8153 74.9192 37.1643C73.9391 36.5062 73.2531 35.6032 72.8611 34.4551Z" fill="white"/>
<path d="M86.0079 37.8783V22.8204H94.7129V24.2485H87.5095V29.5723H94.1774V31.0004H87.5095V36.4607H94.8285V37.8783H86.0079Z" fill="white"/>
<path d="M97.4116 37.8783V22.8204H98.9132V36.4607H105.802V37.8783H97.4116Z" fill="white"/>
<path d="M107.954 37.8783V22.8204H116.659V24.2485H109.456V29.5723H116.124V31.0004H109.456V36.4607H116.775V37.8783H107.954Z" fill="white"/>
<path d="M118.98 33.384C118.588 32.425 118.392 31.4134 118.392 30.3493C118.392 29.2853 118.588 28.2772 118.98 27.3251C119.372 26.3661 119.911 25.54 120.597 24.847C121.29 24.1469 122.127 23.5939 123.107 23.1879C124.094 22.7749 125.154 22.5683 126.288 22.5683C127.675 22.5683 128.949 22.9044 130.111 23.5764C131.273 24.2414 132.169 25.1375 132.799 26.2646L131.465 27.0416C130.996 26.1316 130.296 25.4035 129.365 24.8575C128.434 24.3045 127.409 24.0279 126.288 24.0279C125.049 24.0279 123.94 24.3115 122.96 24.8785C121.98 25.4455 121.224 26.2086 120.692 27.1676C120.16 28.1267 119.894 29.1873 119.894 30.3493C119.894 31.5114 120.16 32.572 120.692 33.531C121.224 34.4901 121.98 35.2532 122.96 35.8202C123.94 36.3872 125.049 36.6707 126.288 36.6707C127.409 36.6707 128.434 36.3977 129.365 35.8517C130.303 35.3057 131.003 34.5776 131.465 33.6675L132.799 34.4131C132.176 35.5472 131.283 36.4537 130.121 37.1328C128.959 37.8048 127.682 38.1408 126.288 38.1408C125.154 38.1408 124.094 37.9378 123.107 37.5318C122.12 37.1188 121.283 36.5622 120.597 35.8622C119.911 35.1621 119.372 34.3361 118.98 33.384Z" fill="white"/>
<path d="M133.775 24.2485V22.8204H144.528V24.2485H139.908V37.8783H138.396V24.2485H133.775Z" fill="white"/>
<path d="M146.681 37.8783V22.8204H148.182V37.8783H146.681Z" fill="white"/>
<path d="M151.375 33.384C150.976 32.418 150.776 31.4064 150.776 30.3493C150.776 29.2923 150.976 28.2842 151.375 27.3251C151.781 26.3661 152.327 25.54 153.013 24.847C153.706 24.1469 154.532 23.5939 155.491 23.1879C156.457 22.7749 157.479 22.5683 158.557 22.5683C159.635 22.5683 160.657 22.7749 161.623 23.1879C162.589 23.5939 163.415 24.1469 164.101 24.847C164.794 25.54 165.34 26.3661 165.739 27.3251C166.146 28.2842 166.349 29.2923 166.349 30.3493C166.349 31.7634 166.005 33.069 165.319 34.2661C164.64 35.4562 163.702 36.4012 162.505 37.1013C161.308 37.7943 159.992 38.1408 158.557 38.1408C157.479 38.1408 156.457 37.9378 155.491 37.5318C154.532 37.1188 153.706 36.5657 153.013 35.8727C152.327 35.1726 151.781 34.3431 151.375 33.384ZM153.097 27.1676C152.551 28.1337 152.278 29.1943 152.278 30.3493C152.278 31.5044 152.551 32.565 153.097 33.531C153.643 34.4971 154.395 35.2637 155.354 35.8307C156.32 36.3907 157.388 36.6707 158.557 36.6707C159.726 36.6707 160.79 36.3907 161.749 35.8307C162.715 35.2637 163.471 34.4971 164.017 33.531C164.563 32.565 164.836 31.5044 164.836 30.3493C164.836 29.1943 164.563 28.1337 164.017 27.1676C163.471 26.2016 162.715 25.4385 161.749 24.8785C160.79 24.3115 159.726 24.0279 158.557 24.0279C157.388 24.0279 156.32 24.3115 155.354 24.8785C154.395 25.4385 153.643 26.2016 153.097 27.1676Z" fill="white"/>
<path d="M168.921 37.8783V22.8204H170.213L178.592 35.0851V22.8204H180.104V37.8783H178.813L170.423 25.624V37.8783H168.921Z" fill="white"/>
<path fill-rule="evenodd" clip-rule="evenodd" d="M133.646 17.4007C137.999 17.4007 141.528 13.9204 141.528 9.62731C141.528 7.92979 140.976 6.35935 140.04 5.08091C139.724 5.7174 139.541 6.38119 139.384 7.08165C139.34 7.27505 139.298 7.47417 139.255 7.67795V7.67804C138.993 8.92481 138.694 10.3457 137.739 11.6946C135.748 14.5094 132.637 15.4148 130.133 14.2967C129.961 14.8415 129.817 15.4094 129.699 16.0051C129.679 16.11 129.637 16.2054 129.58 16.2879C130.767 16.9943 132.158 17.4007 133.646 17.4007ZM128.305 15.3442C128.449 14.6854 128.624 14.057 128.832 13.4544C127.846 12.5268 127.38 11.145 127.385 9.74352C127.392 8.08438 128.049 6.29476 129.41 4.92485V4.92461C130.937 3.38883 133.353 2.52897 135.534 2.0786C134.929 1.93184 134.297 1.854 133.646 1.854C129.292 1.854 125.763 5.33423 125.763 9.62731C125.763 11.8883 126.742 13.9238 128.305 15.3442ZM130.662 12.8875C131.454 11.085 132.607 9.52434 134.168 8.00155C134.464 7.71228 134.47 7.23745 134.181 6.94097C133.892 6.6445 133.417 6.63866 133.12 6.92793C131.545 8.46456 130.334 10.0643 129.468 11.8923C129.093 11.3288 128.882 10.5872 128.885 9.74898C128.89 8.46837 129.402 7.0614 130.474 5.98216C131.956 4.491 134.679 3.67388 137.08 3.33134C137.434 3.28092 137.775 3.24154 138.098 3.21193C138.407 3.42132 138.701 3.65194 138.977 3.90167C138.403 4.85362 138.13 5.82174 137.92 6.75163C137.87 6.97577 137.823 7.19462 137.777 7.40889C137.51 8.65792 137.277 9.75108 136.515 10.8283L137.128 11.2619L136.515 10.8283C134.845 13.1886 132.442 13.7239 130.662 12.8875ZM130.474 5.98216L129.942 5.45339L130.474 5.98192V5.98216Z" fill="white"/>
<path opacity="0.3" d="M54.9 0V40" stroke="white"/>
<g opacity="0.75">
<path opacity="0.5" d="M192 36.895V26.061H193.024V30.6771C193.355 30.1432 193.789 29.7252 194.326 29.423C194.863 29.1208 195.465 28.9697 196.133 28.9697C196.85 28.9697 197.513 29.1485 198.12 29.5061C198.732 29.8586 199.216 30.3472 199.573 30.9718C199.934 31.5963 200.115 32.2813 200.115 33.0268C200.115 33.7722 199.934 34.4572 199.573 35.0817C199.216 35.7063 198.732 36.1974 198.12 36.555C197.513 36.9075 196.85 37.0838 196.133 37.0838C195.465 37.0838 194.863 36.9327 194.326 36.6305C193.789 36.3283 193.355 35.9103 193.024 35.3764V36.895H192ZM193.897 30.8509C193.315 31.4402 193.024 32.1655 193.024 33.0268C193.024 33.888 193.315 34.6158 193.897 35.2102C194.484 35.7995 195.204 36.0941 196.057 36.0941C196.91 36.0941 197.628 35.7995 198.21 35.2102C198.797 34.6158 199.091 33.888 199.091 33.0268C199.091 32.1655 198.797 31.4402 198.21 30.8509C197.628 30.2566 196.91 29.9594 196.057 29.9594C195.204 29.9594 194.484 30.2566 193.897 30.8509Z" fill="white"/>
<path opacity="0.5" d="M200.559 29.1585H201.643L204.541 35.6408L207.04 29.1585H208.116L204.819 37.6051C204.518 38.3707 204.092 38.9726 203.539 39.4108C203.043 39.8037 202.498 40.0001 201.906 40.0001C201.841 40.0001 201.773 39.9976 201.703 39.9925V39.033C201.773 39.0381 201.841 39.0406 201.906 39.0406C202.297 39.0406 202.646 38.9147 202.952 38.6628C203.309 38.3707 203.597 37.9577 203.818 37.4238L204.014 36.9403L200.559 29.1585Z" fill="white"/>
<path opacity="0.5" d="M213.355 36.895V26.061H219.445V27.0885H214.432V31.0775H219.212V32.0975H214.432V36.895H213.355Z" fill="white"/>
<path opacity="0.5" d="M221.131 36.895V25.6001H222.155V36.895H221.131Z" fill="white"/>
<path opacity="0.5" d="M223.848 33.0268C223.848 32.2712 224.014 31.5862 224.345 30.9718C224.681 30.3573 225.158 29.8712 225.775 29.5136C226.393 29.151 227.09 28.9697 227.868 28.9697C228.44 28.9697 228.97 29.083 229.456 29.3096C229.943 29.5363 230.347 29.8385 230.668 30.2163C230.989 30.594 231.24 31.0297 231.421 31.5233C231.602 32.0118 231.692 32.5231 231.692 33.057C231.692 33.1779 231.682 33.339 231.662 33.5405H224.895C225.005 34.3262 225.339 34.9483 225.896 35.4066C226.453 35.8649 227.143 36.0941 227.966 36.0941C228.548 36.0941 229.05 35.9732 229.471 35.7315C229.898 35.4847 230.222 35.1648 230.442 34.772L231.338 35.3008C231.002 35.8448 230.54 36.278 229.953 36.6003C229.371 36.9227 228.704 37.0838 227.951 37.0838C226.741 37.0838 225.755 36.7036 224.993 35.943C224.23 35.1774 223.848 34.2053 223.848 33.0268ZM224.895 32.5508H230.646C230.54 31.7348 230.224 31.1002 229.697 30.6469C229.175 30.1886 228.566 29.9594 227.868 29.9594C227.07 29.9594 226.4 30.1986 225.858 30.6771C225.321 31.1556 225 31.7802 224.895 32.5508Z" fill="white"/>
<path opacity="0.5" d="M232.226 36.895L235.245 32.8908L232.43 29.1585H233.642L235.847 32.0824L238.053 29.1585H239.272L236.464 32.8908L239.475 36.895H238.256L235.847 33.7067L233.446 36.895H232.226Z" fill="white"/>
<path opacity="0.5" d="M244.865 36.895V26.061H245.941V36.895H244.865Z" fill="white"/>
<path opacity="0.5" d="M247.492 27.0885V26.061H255.2V27.0885H251.888V36.895H250.804V27.0885H247.492Z" fill="white"/>
</g>
<path d="M19.6 38.4C19.4052 38.4 19.2112 38.3965 19.0175 38.391L23.0231 27.6072H28.5356C29.5032 27.6072 30.5653 26.8786 30.8962 25.9884L35.242 14.2954C35.9529 12.381 34.8336 10.8148 32.754 10.8148H25.1065L18.6898 28.0873H18.6874L15.0497 37.8787C6.41936 35.8688 0 28.2691 0 19.2C0 10.3924 6.05431 2.97075 14.3083 0.708798L10.5548 10.8148H10.5537L4.31372 27.6072L8.46765 27.6076L13.7743 13.3382H16.8961L11.5895 27.6076L15.7419 27.6083L20.6871 14.2954C21.3985 12.381 20.279 10.8148 18.2014 10.8148H14.7096L18.7191 0.0201777C19.0114 0.00746665 19.3047 0 19.6 0C30.4248 0 39.2 8.59607 39.2 19.2C39.2 29.8038 30.4248 38.4 19.6 38.4ZM31.4591 13.328H28.3381L23.9674 25.0753H27.0885L31.4591 13.328Z" fill="white"/>
</g>
<defs>
<clipPath id="clip0_1_226">
<rect width="256" height="40" fill="white"/>
</clipPath>
</defs>
</svg>
